<?xml version="1.0" encoding="UTF-8"?>
<mxfile host="app.diagrams.net">
  <diagram name="Admin Panel Wireframe" id="admin">
    <mxGraphModel dx="1434" dy="844" grid="1" gridSize="10" guides="1" tooltips="1" connect="1" arrows="1" fold="1" page="1" pageScale="1" pageWidth="1200" pageHeight="1400">
      <root>
        <mxCell id="0"/>
        <mxCell id="1" parent="0"/>
        <mxCell id="browser" value="" style="rounded=0;whiteSpace=wrap;html=1;fillColor=#f5f5f5;strokeColor=#666666;" vertex="1" parent="1">
          <mxGeometry x="40" y="40" width="1120" height="1320" as="geometry"/>
        </mxCell>
        <mxCell id="admin-header" value="🔒 ADMIN PANEL - Indigenous Art Atlas" style="rounded=0;whiteSpace=wrap;html=1;fillColor=#d32f2f;strokeColor=#c62828;fontStyle=1;fontColor=#ffffff;fontSize=14;" vertex="1" parent="1">
          <mxGeometry x="40" y="40" width="1120" height="60" as="geometry"/>
        </mxCell>
        <mxCell id="admin-nav" value="Dashboard | Pending Submissions (3) | All Entries | Users | Categories | Reports | Logout" style="rounded=0;whiteSpace=wrap;html=1;fillColor=#e57373;strokeColor=#c62828;fontColor=#ffffff;fontSize=12;" vertex="1" parent="1">
          <mxGeometry x="40" y="100" width="1120" height="40" as="geometry"/>
        </mxCell>
        <mxCell id="page-title" value="Pending Submissions" style="text;html=1;strokeColor=none;fillColor=none;align=left;verticalAlign=middle;whiteSpace=wrap;rounded=0;fontSize=24;fontStyle=1" vertex="1" parent="1">
          <mxGeometry x="80" y="170" width="400" height="35" as="geometry"/>
        </mxCell>
        <mxCell id="queue-count" value="3 submissions awaiting review" style="text;html=1;strokeColor=none;fillColor=none;align=left;verticalAlign=middle;whiteSpace=wrap;rounded=0;fontSize=13;fontColor=#666666;" vertex="1" parent="1">
          <mxGeometry x="80" y="210" width="400" height="20" as="geometry"/>
        </mxCell>
        <mxCell id="table" value="SUBMISSIONS QUEUE TABLE" style="rounded=0;whiteSpace=wrap;html=1;fillColor=#ffffff;strokeColor=#666666;fontStyle=1;align=left;verticalAlign=top;" vertex="1" parent="1">
          <mxGeometry x="80" y="260" width="1040" height="400" as="geometry"/>
        </mxCell>
        <mxCell id="table-header" value="Thumb | Title | Submitter | Type | Submitted | Actions" style="rounded=0;whiteSpace=wrap;html=1;fillColor=#e0e0e0;strokeColor=#666666;fontStyle=1;fontSize=11;" vertex="1" parent="1">
          <mxGeometry x="100" y="280" width="1000" height="30" as="geometry"/>
        </mxCell>
        <mxCell id="row1-thumb" value="[img]" style="rounded=0;whiteSpace=wrap;html=1;fillColor=#f5f5f5;strokeColor=#666666;fontSize=10;" vertex="1" parent="1">
          <mxGeometry x="100" y="330" width="80" height="60" as="geometry"/>
        </mxCell>
        <mxCell id="row1-title" value="Gumatj Clan Mural" style="text;html=1;strokeColor=none;fillColor=none;align=left;verticalAlign=middle;whiteSpace=wrap;rounded=0;fontSize=12;fontStyle=1" vertex="1" parent="1">
          <mxGeometry x="200" y="345" width="250" height="20" as="geometry"/>
        </mxCell>
        <mxCell id="row1-sub" value="Tommy Williams&#xa;(Artist)" style="text;html=1;strokeColor=none;fillColor=none;align=left;verticalAlign=middle;whiteSpace=wrap;rounded=0;fontSize=10;fontColor=#666666;" vertex="1" parent="1">
          <mxGeometry x="470" y="340" width="150" height="30" as="geometry"/>
        </mxCell>
        <mxCell id="row1-type" value="Mural" style="text;html=1;strokeColor=none;fillColor=none;align=left;verticalAlign=middle;whiteSpace=wrap;rounded=0;fontSize=11;" vertex="1" parent="1">
          <mxGeometry x="640" y="345" width="100" height="20" as="geometry"/>
        </mxCell>
        <mxCell id="row1-date" value="Oct 12" style="text;html=1;strokeColor=none;fillColor=none;align=left;verticalAlign=middle;whiteSpace=wrap;rounded=0;fontSize=11;" vertex="1" parent="1">
          <mxGeometry x="760" y="345" width="100" height="20" as="geometry"/>
        </mxCell>
        <mxCell id="row1-btn" value="Review" style="rounded=1;whiteSpace=wrap;html=1;fillColor=#d2691e;strokeColor=none;fontColor=#ffffff;fontSize=11;fontStyle=1" vertex="1" parent="1">
          <mxGeometry x="1000" y="345" width="80" height="25" as="geometry"/>
        </mxCell>
        <mxCell id="review-modal" value="REVIEW MODAL (Opens when clicking Review)" style="rounded=0;whiteSpace=wrap;html=1;fillColor=#ffffff;strokeColor=#333333;strokeWidth=2;fontStyle=1;align=left;verticalAlign=top;fontSize=14;" vertex="1" parent="1">
          <mxGeometry x="200" y="700" width="800" height="600" as="geometry"/>
        </mxCell>
        <mxCell id="modal-close" value="×" style="text;html=1;strokeColor=none;fillColor=none;align=right;verticalAlign=top;whiteSpace=wrap;rounded=0;fontSize=32;fontStyle=1;fontColor=#666666;" vertex="1" parent="1">
          <mxGeometry x="940" y="710" width="40" height="40" as="geometry"/>
        </mxCell>
        <mxCell id="modal-title" value="Review Submission" style="text;html=1;strokeColor=none;fillColor=none;align=left;verticalAlign=middle;whiteSpace=wrap;rounded=0;fontSize=18;fontStyle=1" vertex="1" parent="1">
          <mxGeometry x="220" y="720" width="700" height="25" as="geometry"/>
        </mxCell>
        <mxCell id="modal-gallery" value="[ IMAGE GALLERY - Full Size ]&#xa;🖼️&#xa;Multiple images with navigation" style="rounded=0;whiteSpace=wrap;html=1;fillColor=#e3f2fd;strokeColor=#1976d2;align=center;fontSize=12;" vertex="1" parent="1">
          <mxGeometry x="220" y="760" width="760" height="200" as="geometry"/>
        </mxCell>
        <mxCell id="modal-info" value="Title: Gumatj Clan Creation Stories Mural&#xa;Type: Mural | Period: Contemporary&#xa;&#xa;Description: [Full text]...&#xa;&#xa;Location: Yirrkala Community Center&#xa;Coordinates: -12.2545, 136.8895&#xa;☑ Publicly Accessible  ☐ Culturally Sensitive&#xa;&#xa;Artist: Tommy Williams (Verified Artist)" style="rounded=0;whiteSpace=wrap;html=1;fillColor=#f5f5f5;strokeColor=#666666;align=left;verticalAlign=top;fontSize=11;" vertex="1" parent="1">
          <mxGeometry x="220" y="980" width="760" height="140" as="geometry"/>
        </mxCell>
        <mxCell id="decision-label" value="Admin Decision:" style="text;html=1;strokeColor=none;fillColor=none;align=left;verticalAlign=middle;whiteSpace=wrap;rounded=0;fontSize=13;fontStyle=1" vertex="1" parent="1">
          <mxGeometry x="220" y="1140" width="200" height="20" as="geometry"/>
        </mxCell>
        <mxCell id="location-opts" value="Location Display:&#xa;⚪ Show exact location&#xa;⚪ Show general area only&#xa;⚪ Hide location entirely" style="rounded=0;whiteSpace=wrap;html=1;fillColor=#fff3e0;strokeColor=#ff9800;align=left;verticalAlign=top;fontSize=11;" vertex="1" parent="1">
          <mxGeometry x="220" y="1165" width="350" height="70" as="geometry"/>
        </mxCell>
        <mxCell id="notes-input" value="[Internal Notes (optional)]" style="rounded=0;whiteSpace=wrap;html=1;fillColor=#ffffff;strokeColor=#666666;align=left;verticalAlign=top;fontSize=11;" vertex="1" parent="1">
          <mxGeometry x="600" y="1165" width="380" height="70" as="geometry"/>
        </mxCell>
        <mxCell id="btn-reject" value="Reject" style="rounded=1;whiteSpace=wrap;html=1;fillColor=#f44336;strokeColor=none;fontColor=#ffffff;fontSize=13;fontStyle=1" vertex="1" parent="1">
          <mxGeometry x="220" y="1250" width="120" height="35" as="geometry"/>
        </mxCell>
        <mxCell id="btn-approve" value="Approve" style="rounded=1;whiteSpace=wrap;html=1;fillColor=#4caf50;strokeColor=none;fontColor=#ffffff;fontSize=13;fontStyle=1" vertex="1" parent="1">
          <mxGeometry x="860" y="1250" width="120" height="35" as="geometry"/>
        </mxCell>
        <mxCell id="note1" value="💡 Modal shows all&#xa;submission details" style="text;html=1;strokeColor=#b85450;fillColor=#f8cecc;align=left;verticalAlign=middle;whiteSpace=wrap;rounded=0;fontSize=9;" vertex="1" parent="1">
          <mxGeometry x="1040" y="900" width="100" height="30" as="geometry"/>
        </mxCell>
        <mxCell id="note2" value="💡 Location controls&#xa;are prominent" style="text;html=1;strokeColor=#b85450;fillColor=#f8cecc;align=left;verticalAlign=middle;whiteSpace=wrap;rounded=0;fontSize=9;" vertex="1" parent="1">
          <mxGeometry x="1040" y="1180" width="100" height="30" as="geometry"/>
        </mxCell>
      </root>
    </mxGraphModel>
  </diagram>
</mxfile>
